name Walk10.mot
datacolumns 19
datarows 27
range 1.99500000 2.12500000
endheader

                time	   L_ground_force_vx	   L_ground_force_vy	   L_ground_force_vz	   L_ground_force_px	   L_ground_force_py	   L_ground_force_pz	   R_ground_force_vx	   R_ground_force_vy	   R_ground_force_vz	   R_ground_force_px	   R_ground_force_py	   R_ground_force_pz	   L_ground_torque_x	   L_ground_torque_y	   L_ground_torque_z	   R_ground_torque_x	   R_ground_torque_y	   R_ground_torque_z	
          1.99500000	          0.14644859	          0.45456956	          0.00351851	         -0.00001255	          0.00000000	          0.00001544	        -20.58697909	        680.66955127	        -43.00900398	          0.28770991	          0.00000000	          0.07715714	          0.00000000	          0.00083172	          0.00000000	          0.00000000	          5.13122339	          0.00000000	
          2.00000000	          0.13439482	          0.41230620	         -0.00151514	         -0.00009310	          0.00000000	         -0.00002379	        -18.87497042	        673.43941132	        -42.99687686	          0.29055700	          0.00000000	          0.07747784	          0.00000000	          0.00067639	          0.00000000	          0.00000000	          4.83095367	          0.00000000	
          2.00500000	          0.11603597	          0.35259510	         -0.00462329	         -0.00013739	          0.00000000	         -0.00004706	        -17.24048508	        666.56714723	        -43.03283449	          0.29336281	          0.00000000	          0.07777201	          0.00000000	          0.00052328	          0.00000000	          0.00000000	          4.55454796	          0.00000000	
          2.01000000	          0.09508575	          0.28641751	         -0.00625084	         -0.00015493	          0.00000000	         -0.00005826	        -15.68275153	        660.08538127	        -43.09651427	          0.29612971	          0.00000000	          0.07803558	          0.00000000	          0.00038371	          0.00000000	          0.00000000	          4.29861901	          0.00000000	
          2.01500000	          0.07413064	          0.22132695	         -0.00680019	         -0.00015392	          0.00000000	         -0.00006084	        -14.19802278	        654.02563869	        -43.16648099	          0.29885871	          0.00000000	          0.07826498	          0.00000000	          0.00026386	          0.00000000	          0.00000000	          4.05959715	          0.00000000	
          2.02000000	          0.05482970	          0.16208134	         -0.00661467	         -0.00014110	          0.00000000	         -0.00005768	        -12.78041157	        648.42236018	        -43.22215697	          0.30154945	          0.00000000	          0.07845762	          0.00000000	          0.00016613	          0.00000000	          0.00000000	          3.83422467	          0.00000000	
          2.02500000	          0.03811602	          0.11126961	         -0.00597256	         -0.00012172	          0.00000000	         -0.00005109	        -11.42281363	        643.31770130	        -43.24549266	          0.30419975	          0.00000000	          0.07861152	          0.00000000	          0.00009032	          0.00000000	          0.00000000	          3.61945021	          0.00000000	
          2.03000000	          0.02438334	          0.06988495	         -0.00508842	         -0.00009967	          0.00000000	         -0.00004283	        -10.11748284	        638.76294812	        -43.22310404	          0.30680479	          0.00000000	          0.07872451	          0.00000000	          0.00003456	          0.00000000	          0.00000000	          3.41257408	          0.00000000	
          2.03500000	          0.01364841	          0.03781871	         -0.00411901	         -0.00007764	          0.00000000	         -0.00003414	         -8.85669989	        634.81593815	        -43.14648800	          0.30935538	          0.00000000	          0.07879405	          0.00000000	         -0.00000393	          0.00000000	          0.00000000	          3.21132629	          0.00000000	
          2.04000000	          0.00568489	          0.01426426	         -0.00317159	         -0.00005738	          0.00000000	         -0.00002587	         -7.63229356	        631.54149089	        -43.01165554	          0.31183887	          0.00000000	          0.07881758	          0.00000000	         -0.00002830	          0.00000000	          0.00000000	          3.01385628	          0.00000000	
          2.04500000	          0.00012843	         -0.00196889	         -0.00231319	         -0.00003984	          0.00000000	         -0.00001852	         -6.43437494	        629.01181620	        -42.81908434	          0.31424190	          0.00000000	          0.07879346	          0.00000000	         -0.00004169	          0.00000000	          0.00000000	          2.81862775	          0.00000000	
          2.05000000	         -0.00344498	         -0.01222318	         -0.00157976	         -0.00002545	          0.00000000	         -0.00001234	         -5.25139553	        627.30347377	        -42.57321568	          0.31655211	          0.00000000	          0.07872191	          0.00000000	         -0.00004698	          0.00000000	          0.00000000	          2.62426071	          0.00000000	
          2.05500000	         -0.00546408	         -0.01783235	         -0.00098450	         -0.00001420	          0.00000000	         -0.00000740	         -4.07041595	        626.48968422	        -42.28099317	          0.31875706	          0.00000000	          0.07860300	          0.00000000	         -0.00004666	          0.00000000	          0.00000000	          2.42937376	          0.00000000	
          2.06000000	         -0.00632675	         -0.02001908	         -0.00052490	         -0.00000587	          0.00000000	         -0.00000365	         -2.87719554	        626.63103517	        -41.95075735	          0.32084449	          0.00000000	          0.07843649	          0.00000000	         -0.00004276	          0.00000000	          0.00000000	          2.23240601	          0.00000000	
          2.06500000	         -0.00637959	         -0.01983812	         -0.00018866	         -0.00000006	          0.00000000	         -0.00000096	         -1.65651511	        627.77023109	        -41.59088645	          0.32280385	          0.00000000	          0.07822421	          0.00000000	         -0.00003688	          0.00000000	          0.00000000	          2.03150332	          0.00000000	
          2.07000000	         -0.00590893	         -0.01815312	          0.00004189	          0.00000367	          0.00000000	          0.00000085	         -0.39249907	        629.92927588	        -41.20908789	          0.32462757	          0.00000000	          0.07797059	          0.00000000	         -0.00003019	          0.00000000	          0.00000000	          1.82444389	          0.00000000	
          2.07500000	         -0.00513978	         -0.01563687	          0.00018642	          0.00000577	          0.00000000	          0.00000194	          0.93182208	        633.10635459	        -40.81204500	          0.32631295	          0.00000000	          0.07768096	          0.00000000	         -0.00002351	          0.00000000	          0.00000000	          1.60822542	          0.00000000	
          2.08000000	         -0.00424004	         -0.01278656	          0.00026436	          0.00000666	          0.00000000	          0.00000248	          2.33523579	        637.27728498	        -40.40404190	          0.32786116	          0.00000000	          0.07736047	          0.00000000	         -0.00001737	          0.00000000	          0.00000000	          1.37879340	          0.00000000	
          2.08500000	         -0.00332772	         -0.00994745	          0.00029344	          0.00000671	          0.00000000	          0.00000264	          3.83828566	        642.40192617	        -39.98604846	          0.32927691	          0.00000000	          0.07701491	          0.00000000	         -0.00001206	          0.00000000	          0.00000000	          1.13142502	          0.00000000	
          2.09000000	         -0.00247949	         -0.00734006	          0.00028888	          0.00000620	          0.00000000	          0.00000253	          5.46167693	        648.42961202	        -39.55577975	          0.33056815	          0.00000000	          0.07664981	          0.00000000	         -0.00000770	          0.00000000	          0.00000000	          0.86141174	          0.00000000	
          2.09500000	         -0.00173943	         -0.00508748	          0.00026310	          0.00000539	          0.00000000	          0.00000226	          7.22452883	        655.30206123	        -39.10715721	          0.33174350	          0.00000000	          0.07626901	          0.00000000	         -0.00000430	          0.00000000	          0.00000000	          0.56456356	          0.00000000	
          2.10000000	         -0.00112728	         -0.00324059	          0.00022577	          0.00000444	          0.00000000	          0.00000190	          9.14362573	        662.95983726	        -38.63058671	          0.33281051	          0.00000000	          0.07587628	          0.00000000	         -0.00000177	          0.00000000	          0.00000000	          0.23734185	          0.00000000	
          2.10500000	         -0.00064557	         -0.00179992	          0.00018397	          0.00000349	          0.00000000	          0.00000153	         11.23340964	        671.34236921	        -38.11623071	          0.33377647	          0.00000000	          0.07547557	          0.00000000	         -0.00000001	          0.00000000	          0.00000000	         -0.12364065	          0.00000000	
          2.11000000	         -0.00028560	         -0.00073369	          0.00014262	          0.00000260	          0.00000000	          0.00000117	         13.50629586	        680.38494869	        -37.55688909	          0.33464943	          0.00000000	          0.07507091	          0.00000000	          0.00000112	          0.00000000	          0.00000000	         -0.52163062	          0.00000000	
          2.11500000	         -0.00003217	          0.00000808	          0.00010482	          0.00000182	          0.00000000	          0.00000084	         15.97141773	        690.01622249	        -36.94831315	          0.33543723	          0.00000000	          0.07466657	          0.00000000	          0.00000175	          0.00000000	          0.00000000	         -0.95953256	          0.00000000	
          2.12000000	          0.00013290	          0.00048313	          0.00007229	          0.00000118	          0.00000000	          0.00000057	         18.63316721	        700.15661481	        -36.28990106	          0.33614668	          0.00000000	          0.07426757	          0.00000000	          0.00000202	          0.00000000	          0.00000000	         -1.43962842	          0.00000000	
          2.12500000	          0.00022824	          0.00074956	          0.00004571	          0.00000067	          0.00000000	          0.00000035	         21.49180224	        710.71740162	        -35.58581278	          0.33678451	          0.00000000	          0.07387877	          0.00000000	          0.00000203	          0.00000000	          0.00000000	         -1.96308146	          0.00000000	
